<?xml version="1.0" standalone="no"?>
<!DOCTYPE svg PUBLIC "-//W3C//DTD SVG 20010904//EN"
 "http://www.w3.org/TR/2001/REC-SVG-20010904/DTD/svg10.dtd">
<svg version="1.0" xmlns="http://www.w3.org/2000/svg"
 width="509.000000pt" height="509.000000pt" viewBox="0 0 509.000000 509.000000"
 preserveAspectRatio="xMidYMid meet">
<metadata>
Created by potrace 1.14, written by Peter Selinger 2001-2017
</metadata>
<g transform="translate(0.000000,509.000000) scale(0.100000,-0.100000)"
fill="#000000" stroke="none">
<path d="M2355 5030 c-176 -11 -414 -55 -580 -107 -153 -48 -423 -168 -504
-222 -14 -10 -79 -53 -143 -95 -449 -296 -815 -778 -983 -1293 -31 -94 -32
-113 -4 -82 12 15 7 -1 -15 -41 -35 -66 -61 -149 -54 -171 5 -14 122 175 160
257 16 33 30 50 44 52 23 3 120 -49 195 -103 59 -44 141 -139 129 -151 -5 -5
8 -36 30 -72 22 -35 44 -88 51 -118 11 -47 10 -60 -4 -90 -9 -19 -17 -41 -17
-48 0 -7 -11 -33 -25 -58 -13 -24 -31 -64 -40 -88 -9 -26 -31 -57 -55 -77 -69
-59 -291 -337 -409 -511 -42 -62 -42 -63 -29 -107 l13 -45 68 102 c59 90 132
189 300 408 41 54 42 54 45 27 2 -15 -4 -61 -12 -102 -9 -41 -24 -157 -35
-257 -12 -101 -23 -201 -25 -224 l-5 -41 69 -47 c94 -65 201 -165 240 -226 18
-28 30 -53 27 -56 -7 -8 -346 98 -485 151 -105 40 -112 41 -106 21 20 -65 30
-72 156 -119 l123 -44 11 -125 c22 -237 33 -294 66 -335 l31 -38 -6 50 c-8 63
-26 280 -30 363 -2 43 0 62 9 62 6 0 68 -18 137 -40 68 -22 140 -40 159 -40
74 0 85 58 45 242 -14 64 -31 167 -38 230 -17 148 -17 512 0 658 12 107 15
119 53 178 49 76 76 95 279 199 147 76 306 174 374 231 29 25 30 25 33 4 6
-42 -137 -614 -198 -791 -16 -47 -49 -135 -73 -195 -44 -108 -45 -109 -50 -70
-3 21 -10 59 -17 84 -8 34 -9 100 -1 268 14 285 13 309 -9 187 -91 -500 50
-1421 322 -2100 84 -212 128 -297 160 -315 15 -8 29 -12 33 -9 3 4 -20 64 -50
134 -73 166 -77 161 114 146 94 -8 180 -21 258 -42 65 -17 150 -33 188 -36 39
-3 79 -12 90 -19 16 -10 44 -8 150 12 230 43 400 97 451 145 12 11 34 21 50
22 22 2 31 -4 43 -28 17 -33 22 -168 8 -223 -8 -28 -6 -32 12 -32 27 0 37 26
45 110 11 108 -7 224 -47 319 -20 46 -46 93 -57 103 -29 28 -22 38 40 58 118
36 256 127 536 352 51 40 137 108 193 150 l101 77 6 -27 c17 -75 27 -108 36
-120 7 -8 9 -81 5 -215 -5 -197 -28 -378 -71 -562 -8 -33 -13 -61 -12 -63 2
-1 43 26 92 61 67 48 108 88 169 164 44 55 85 108 90 118 10 17 12 17 37 1 26
-17 27 -17 65 19 l38 37 -37 -5 c-60 -9 -61 8 -6 103 60 101 181 351 229 470
64 161 44 42 -41 -239 -22 -74 -40 -139 -40 -145 1 -6 10 0 22 14 20 24 21 24
16 3 -9 -35 13 -18 65 52 72 98 117 178 153 273 24 65 33 80 36 61 4 -21 8
-17 31 31 22 45 27 69 27 135 1 44 10 127 20 185 11 58 27 148 35 199 9 52 17
97 19 98 2 2 22 -17 44 -42 43 -48 46 -48 56 1 7 29 2 35 -65 94 -40 34 -107
86 -150 116 -88 62 -135 112 -121 126 14 14 101 -6 160 -36 26 -13 82 -49 124
-79 42 -30 79 -53 82 -49 18 17 3 53 -34 82 l-40 31 30 56 c42 78 73 188 66
232 -10 62 -12 101 -5 101 3 0 4 11 1 25 -5 30 -37 34 -52 6 -14 -28 -12 -67
6 -102 14 -29 14 -34 -11 -97 -33 -87 -76 -164 -94 -170 -11 -4 -9 4 6 29 15
27 18 46 15 94 l-5 60 -12 -35 c-12 -34 -13 -34 -18 -10 -3 14 -11 77 -17 140
-15 145 -61 420 -100 599 l-30 137 50 84 c27 46 50 93 49 104 0 12 -19 -16
-44 -66 -25 -47 -49 -89 -54 -92 -5 -4 -13 8 -16 26 -19 85 -90 321 -131 436
-72 199 -123 298 -193 380 -35 40 -65 71 -67 69 -2 -2 21 -48 51 -103 30 -54
75 -145 100 -202 161 -367 295 -985 331 -1520 l7 -103 -29 7 c-16 4 -48 13
-71 21 -37 12 -46 12 -72 -1 -37 -19 -44 -39 -31 -87 7 -25 22 -47 43 -61 18
-13 63 -47 100 -77 53 -44 67 -60 67 -82 0 -50 -30 -261 -51 -359 -24 -108
-109 -375 -139 -435 -11 -22 -18 -32 -16 -23 24 84 47 247 45 318 0 47 2 99 5
115 6 27 5 27 -15 -10 -13 -22 -82 -161 -154 -310 -140 -287 -259 -508 -303
-564 -15 -18 -31 -40 -37 -49 -53 -85 -205 -269 -205 -249 0 4 7 50 15 103 35
216 47 377 52 724 5 320 3 373 -17 545 -45 403 -94 656 -195 1030 -106 389
-233 743 -350 975 -19 38 -34 70 -32 70 3 0 80 -22 173 -49 93 -28 170 -48
171 -47 7 7 -129 62 -247 101 l-125 42 -44 77 c-24 42 -46 75 -48 73 -2 -2 10
-34 27 -71 16 -38 30 -69 30 -70 0 -2 -30 3 -67 10 -38 8 -113 17 -169 20
l-101 7 -13 36 c-7 20 -19 45 -28 56 -13 17 -14 18 -8 2 3 -10 9 -36 12 -58
l7 -39 -46 0 c-96 0 -283 -48 -345 -88 -35 -23 -21 -24 35 -2 59 22 190 47
286 53 l67 5 0 -108 c0 -233 -32 -514 -92 -805 -39 -189 -41 -210 -42 -380 -1
-176 -1 -180 20 -183 24 -3 41 25 25 41 -5 5 -8 30 -6 56 3 25 7 87 9 137 3
50 17 147 31 215 46 219 73 381 85 504 7 66 14 127 16 135 3 8 18 -24 34 -71
42 -125 95 -235 203 -420 82 -139 111 -179 194 -265 54 -56 127 -121 163 -144
59 -38 70 -41 117 -38 51 5 62 -3 63 -44 0 -10 -117 2 -210 22 -47 11 -148 26
-225 35 -138 16 -143 16 -240 -6 -129 -27 -133 -29 -133 -80 -1 -31 -8 -49
-28 -70 -37 -39 -22 -54 32 -36 52 18 365 23 459 7 99 -17 220 -48 260 -67 27
-13 38 -14 47 -5 9 9 6 18 -13 38 -14 16 -19 28 -13 31 6 2 27 12 47 22 l35
18 17 -71 c28 -126 29 -143 10 -173 l-18 -28 21 18 c20 18 20 18 31 -35 32
-163 66 -369 81 -490 10 -80 9 -91 -9 -125 -29 -56 -170 -223 -296 -348 -293
-294 -531 -445 -699 -445 -206 0 -655 58 -781 102 -216 74 -343 144 -469 259
-52 47 -58 58 -86 147 -17 54 -40 145 -52 204 -23 116 -23 114 27 196 37 59
24 53 -15 -9 -37 -56 -46 -54 -61 12 -13 56 -58 126 -114 178 l-44 41 23 67
c13 38 44 122 69 188 83 219 237 739 237 798 0 35 15 7 44 -83 36 -114 96
-234 145 -293 85 -101 203 -177 339 -216 39 -12 104 -30 143 -42 59 -17 76
-18 100 -8 36 14 37 33 3 117 -14 35 -23 66 -20 69 3 3 19 -6 36 -21 44 -37
120 -56 221 -56 66 0 91 4 103 16 19 18 20 26 5 41 -8 8 -42 9 -103 6 -106 -7
-142 2 -214 51 -50 35 -72 36 -72 6 0 -10 -4 -21 -9 -25 -10 -5 -6 -53 9 -112
10 -40 15 -40 -123 -8 -213 48 -360 156 -443 326 -48 96 -89 221 -106 319
l-12 68 143 153 c79 85 165 177 192 206 26 28 94 88 151 134 99 79 308 256
318 270 3 4 68 62 145 129 163 143 320 263 345 265 27 2 90 54 90 73 0 28 -30
63 -66 78 -32 13 -46 34 -24 34 5 0 27 16 48 35 22 19 41 32 44 29 3 -3 59 13
124 35 66 22 182 51 259 66 191 35 189 35 179 45 -30 28 -483 200 -527 200 -8
0 -24 -22 -37 -50 -13 -27 -27 -50 -30 -50 -4 0 -24 -13 -45 -30 -21 -16 -41
-30 -44 -30 -4 0 -22 20 -39 45 l-32 46 30 44 c35 51 37 65 10 65 -13 0 -26
-12 -37 -35 -9 -19 -20 -35 -24 -35 -13 0 -60 70 -47 70 9 1 8 4 -3 10 -14 8
-317 32 -364 28 -11 -1 -69 -4 -130 -8z m479 -77 c25 -25 46 -51 46 -57 0 -6
-15 -34 -33 -61 -18 -28 -48 -76 -66 -108 -20 -36 -43 -62 -60 -69 -59 -24
-332 5 -390 41 -17 11 -5 32 14 24 8 -3 15 -1 15 5 0 6 -5 12 -11 14 -15 5
123 143 162 164 17 8 37 13 44 10 7 -2 24 4 36 15 15 13 31 18 46 14 24 -6 57
7 81 31 7 7 19 11 26 8 8 -3 17 -1 21 5 11 18 21 13 69 -36z m-488 -108 c-9
-7 -16 -18 -16 -25 0 -7 -7 -10 -16 -6 -9 3 -12 2 -9 -4 4 -6 -31 -52 -77
-103 -203 -223 -400 -481 -484 -633 l-34 -60 -66 -2 c-36 -1 -70 -5 -75 -8
-17 -10 1 -24 31 -24 23 0 27 -3 23 -20 -6 -23 0 -25 25 -9 24 15 96 -20 133
-63 20 -24 35 -31 68 -33 37 -2 52 4 119 53 84 61 264 187 424 298 133 92 328
214 406 253 70 35 152 42 202 16 39 -20 38 -38 -3 -57 -60 -29 -151 -91 -202
-138 -79 -73 -331 -282 -518 -430 -94 -74 -200 -166 -236 -203 -195 -204 -443
-448 -496 -488 -106 -81 -303 -204 -365 -228 -62 -25 -171 -81 -216 -111 -23
-17 -57 -32 -74 -34 -17 -2 -46 -17 -63 -34 -18 -16 -38 -27 -44 -25 -15 6
-17 -13 -3 -22 6 -4 8 -11 5 -16 -4 -5 -2 -9 3 -9 6 0 8 -118 4 -313 -5 -337
4 -516 39 -717 12 -63 23 -133 26 -155 l6 -40 -42 62 c-65 96 -174 189 -327
279 -17 10 -17 17 9 175 77 461 165 736 237 739 25 1 25 1 3 10 -15 6 -21 15
-17 25 4 8 2 21 -4 28 -7 8 -6 18 4 31 8 11 14 35 14 53 0 18 6 47 14 65 7 18
18 47 24 63 5 17 15 44 20 60 14 38 26 88 52 200 35 156 42 175 59 176 11 0
12 2 3 6 -10 4 -8 9 7 20 19 13 25 12 60 -8 39 -21 53 -44 65 -101 5 -21 12
-28 31 -28 17 0 25 6 26 18 3 53 -4 101 -21 133 l-18 36 30 1 c34 1 43 7 52
39 7 21 5 21 -31 11 -21 -5 -44 -15 -50 -20 -10 -8 -13 -2 -13 26 0 25 4 36
15 36 16 0 135 54 172 78 49 31 10 28 -59 -5 -43 -21 -81 -33 -96 -30 -17 3
-26 -1 -33 -17 -6 -16 -7 -12 -3 15 4 25 1 39 -10 48 -8 7 -12 20 -9 28 4 11
2 14 -5 9 -7 -4 -12 -1 -12 8 0 9 6 15 13 14 8 -2 11 10 10 40 -1 24 2 40 8
37 5 -4 9 1 9 10 0 9 4 13 10 10 6 -4 7 1 3 11 -4 11 -3 15 5 10 6 -3 14 -1
18 5 4 7 3 9 -3 6 -6 -4 -13 3 -16 14 -4 15 -2 19 8 15 9 -3 16 5 20 25 4 16
10 27 15 24 15 -9 39 6 33 21 -3 8 20 -10 50 -40 31 -29 69 -60 86 -67 16 -7
34 -24 40 -36 6 -13 15 -23 20 -23 5 0 15 -26 21 -57 24 -122 39 -161 77 -192
52 -43 75 -46 153 -16 75 29 93 43 80 64 -6 11 -17 12 -56 2 -36 -9 -59 -9
-95 -1 -53 13 -70 39 -68 100 1 36 -36 145 -60 174 -7 9 -20 16 -27 16 -8 0
-14 4 -14 9 0 5 9 7 20 4 15 -4 20 0 20 16 0 14 -6 21 -20 21 -25 0 -25 -1 4
62 14 29 27 61 31 72 5 18 6 18 25 1 11 -10 28 -15 39 -12 15 4 21 -1 23 -19
4 -36 20 -30 35 13 8 21 26 54 41 73 15 19 41 55 57 80 30 47 137 178 215 265
25 28 68 77 95 110 67 79 138 158 150 167 5 4 22 6 37 4 18 -2 36 5 56 23 16
14 42 27 58 29 16 2 35 10 42 19 6 9 20 18 29 19 10 2 19 7 21 13 2 5 10 7 19
4 14 -6 14 -7 -1 -18z m589 -31 c15 -25 24 -51 22 -58 -5 -12 -148 -78 -154
-72 -5 4 92 175 99 176 3 0 18 -21 33 -46z m-354 -335 c19 -6 40 -13 48 -15 9
-3 -15 -24 -60 -53 -66 -43 -174 -124 -339 -254 -200 -159 -344 -221 -421
-182 -29 16 -29 16 -13 48 24 46 191 292 209 307 20 17 472 157 511 159 17 0
46 -4 65 -10z m-1276 -324 c-3 -25 -12 -64 -19 -87 -8 -23 -12 -46 -9 -52 3
-6 0 -5 -7 1 -9 8 -18 9 -25 3 -7 -6 -20 -1 -38 14 -32 28 -33 32 -6 46 15 9
24 8 37 -2 15 -12 16 -11 2 6 -13 16 -12 20 1 30 9 6 14 17 12 24 -3 6 0 12 5
12 6 0 14 9 17 20 4 11 11 18 16 15 5 -4 9 -1 9 4 0 6 2 11 5 11 3 0 3 -20 0
-45z m1969 -159 c43 -9 81 -18 84 -20 12 -13 189 -482 242 -641 46 -140 160
-533 160 -552 0 -9 -72 -1 -116 14 -75 25 -190 146 -286 304 -204 332 -284
525 -322 779 -8 52 -17 106 -22 119 l-7 24 94 -6 c52 -3 130 -13 173 -21z
m273 -1360 c95 -20 185 -36 200 -36 27 -1 27 -1 -10 -21 -20 -11 -42 -27 -48
-37 -11 -17 -15 -17 -98 0 -90 19 -442 43 -522 35 l-47 -4 6 41 c2 23 6 42 7
43 1 2 33 7 71 12 115 16 254 6 441 -33z m-2127 -820 c17 -32 30 -65 30 -71 0
-7 6 -18 14 -24 29 -24 29 -67 2 -114 -31 -52 -35 -76 -5 -30 23 36 39 35 39
-2 0 -13 14 -77 30 -141 34 -130 56 -168 166 -278 88 -88 164 -140 248 -171
42 -15 74 -31 71 -35 -5 -9 -102 4 -152 20 -160 52 -398 220 -458 324 -25 43
-52 164 -85 381 -24 158 -25 187 -4 227 l16 30 29 -28 c16 -16 43 -55 59 -88z
m192 -776 c155 -100 311 -150 431 -135 80 9 72 9 147 -8 88 -21 383 -64 558
-82 117 -12 149 -19 173 -37 42 -31 80 -101 82 -150 l2 -42 -104 -44 c-57 -25
-152 -56 -210 -69 -58 -14 -126 -32 -151 -40 -126 -40 -173 -38 -425 17 -71
16 -196 36 -276 44 -81 9 -154 19 -163 22 -9 3 -23 1 -31 -6 -9 -7 -18 -10
-21 -7 -12 11 -124 356 -162 497 -62 230 -62 213 2 152 30 -28 97 -79 148
-112z"/>
<path d="M1462 3828 c5 -16 74 -63 106 -72 42 -13 22 12 -37 48 -63 39 -75 43
-69 24z"/>
<path d="M1240 3600 c-13 -8 -13 -10 2 -10 9 0 20 5 23 10 8 13 -5 13 -25 0z"/>
<path d="M1270 4099 c0 -5 5 -7 10 -4 6 3 10 8 10 11 0 2 -4 4 -10 4 -5 0 -10
-5 -10 -11z"/>
<path d="M3266 4197 c3 -10 9 -15 12 -12 3 3 0 11 -7 18 -10 9 -11 8 -5 -6z"/>
<path d="M3051 2816 c-36 -13 -49 -30 -33 -40 14 -8 152 35 146 45 -7 13 -73
10 -113 -5z"/>
<path d="M1883 2410 c-18 -11 -33 -27 -33 -35 0 -17 16 -20 25 -4 4 5 30 21
58 34 l52 23 -35 1 c-19 1 -50 -8 -67 -19z"/>
<path d="M3735 2320 c-89 -90 -107 -119 -35 -57 48 41 134 136 128 142 -2 2
-44 -36 -93 -85z"/>
<path d="M1972 2359 c-29 -5 -79 -21 -109 -36 -53 -25 -224 -149 -341 -248
-32 -27 -63 -45 -78 -45 -27 0 -43 -25 -26 -42 6 -6 31 -13 56 -15 27 -3 46
-11 46 -18 0 -20 31 -75 42 -75 5 0 48 34 95 76 180 160 274 219 418 263 39
12 79 25 90 30 11 5 32 12 48 15 42 10 32 26 -16 26 -37 0 -48 6 -82 40 -42
43 -49 44 -143 29z m100 -36 c31 -36 28 -50 -11 -61 -59 -18 -231 -106 -290
-148 -29 -22 -83 -63 -120 -93 -36 -30 -60 -48 -53 -41 20 22 15 25 -33 22
-27 -3 -45 0 -45 6 0 14 89 98 172 162 36 28 117 78 180 110 121 64 172 75
200 43z"/>
<path d="M1616 1741 c-15 -28 -24 -51 -22 -51 9 0 59 91 53 96 -3 3 -17 -17
-31 -45z"/>
<path d="M3140 1756 c-3 -2 -66 -12 -140 -21 -161 -20 -234 -38 -277 -71 -43
-32 -143 -183 -143 -215 0 -31 59 -119 120 -180 39 -39 62 -52 129 -73 91 -29
174 -33 224 -12 34 14 108 90 161 166 30 44 31 47 29 152 -2 119 -12 169 -46
219 -21 31 -46 46 -57 35z m39 -102 c60 -159 53 -264 -26 -369 -73 -96 -176
-120 -310 -70 -98 36 -111 44 -123 78 -15 45 -12 167 6 221 16 47 97 146 138
168 18 10 100 18 263 26 30 2 33 -1 52 -54z m-466 -85 c-29 -60 -41 -155 -25
-212 9 -33 9 -37 -3 -27 -27 22 -65 99 -65 130 0 54 71 155 112 159 4 1 -4
-22 -19 -50z"/>
<path d="M641 1191 c-6 -11 -11 -79 -11 -159 0 -135 1 -139 25 -162 l25 -23 1
49 1 49 26 -78 c29 -82 62 -131 112 -167 l31 -22 -49 98 c-72 143 -114 266
-121 353 -6 76 -21 99 -40 62z"/>
<path d="M2450 50 c19 -11 42 -19 50 -19 8 0 -3 9 -25 19 -53 24 -70 24 -25 0z"/>
</g>
</svg>
